<svg xmlns="http://www.w3.org/2000/svg" data-name="Layer 1" viewBox="0 0 95 118.75" x="0px" y="0px"><title>button</title><path d="M47.5,4A43.5,43.5,0,1,0,91,47.5,43.54,43.54,0,0,0,47.5,4Zm0,84A40.5,40.5,0,1,1,88,47.5,40.55,40.55,0,0,1,47.5,88Z"/><path d="M40.38,47.5,61.69,26.19a5.52,5.52,0,0,0-7.8-7.81l-27,27a5.38,5.38,0,0,0-1,1.46l-.32.65.32.65a5.61,5.61,0,0,0,1,1.48l27,27a5.52,5.52,0,0,0,7.8-7.81Zm19.2,27a2.6,2.6,0,0,1-3.57,0l-27-27,0,0h0l27-27a2.6,2.6,0,0,1,3.57,0,2.53,2.53,0,0,1,0,3.57L36.14,47.5,59.57,70.93A2.53,2.53,0,0,1,59.58,74.49Z"/><text x="0" y="110" fill="#000000" font-size="5px" font-weight="bold" font-family="'Helvetica Neue', Helvetica, Arial-Unicode, Arial, Sans-serif">Created by Adlama Fila</text><text x="0" y="115" fill="#000000" font-size="5px" font-weight="bold" font-family="'Helvetica Neue', Helvetica, Arial-Unicode, Arial, Sans-serif">from the Noun Project</text></svg>